<svg xmlns="http://www.w3.org/2000/svg" width="24.214" height="19.767" viewBox="0 0 24.214 19.767">
    <defs>
        <style>
            .cls-1{fill:#101010;stroke:#101010;stroke-linecap:round;stroke-linejoin:round;stroke-width:.2px}
        </style>
    </defs>
    <g id="Groupe_523" transform="translate(32.685 -9.235)">
        <path id="Tracé_253" d="M-29.958 9.387a.244.244 0 0 0-.386.211v19.046a.251.251 0 0 0 .245.258h2.668a.252.252 0 0 0 .245-.258V12.2a.261.261 0 0 0-.1-.209z" class="cls-1" transform="translate(2.696)"/>
        <path id="Tracé_254" d="M-22.6 9.387L-25.271 12a.261.261 0 0 0-.1.209v16.44a.252.252 0 0 0 .245.258h2.668a.251.251 0 0 0 .245-.258V9.6a.244.244 0 0 0-.387-.213z" class="cls-1" transform="translate(8.694)"/>
        <path id="Tracé_255" d="M-28.413 14.571v1.461c1.03-.037 2.1-.067 3.237-.067.827 0 1.617.014 2.37.035v-1.463c-.75-.021-1.542-.033-2.37-.033-1.134-.004-2.204.028-3.237.067z" class="cls-1" transform="translate(5.026 6.831)"/>
        <path id="Tracé_256" d="M-32.572 15.881a.709.709 0 0 0 .686.627.479.479 0 0 0 .1-.009c.024 0 1.183-.172 3.036-.351v-1.465c-1.977.188-3.208.369-3.235.374a.725.725 0 0 0-.587.824z" class="cls-1" transform="translate(0 7.068)"/>
        <path id="Tracé_257" d="M-20.178 15.086c-.09-.016-1.264-.225-3.263-.423v1.468c1.906.2 3.005.39 3.027.393a.708.708 0 0 0 .8-.595.727.727 0 0 0-.564-.843z" class="cls-1" transform="translate(11.024 7.041)"/>
    </g>
</svg>
