<svg xmlns="http://www.w3.org/2000/svg" width="17" height="17" viewBox="0 0 17 17">
    <path fill="#292930" d="M10.444 10.638l-.682-2.11v-.015A1.548 1.548 0 0 0 8.3 7.471H3.381a1.548 1.548 0 0 0-1.456 1.042l-.689 2.131a2 2 0 0 0-.661.456A2.03 2.03 0 0 0 0 12.517V16a1.328 1.328 0 0 0 2.646.166h6.4a1.33 1.33 0 0 0 1.317 1.162 1.3 1.3 0 0 0 1.328-1.162v-3.682a2 2 0 0 0-1.247-1.846zM3.381 8.8H8.3a.221.221 0 0 1 .2.147l.5 1.545H2.681l.5-1.546a.221.221 0 0 1 .2-.146zm6.978 5.379a.665.665 0 0 1-.664.664h-7.7a.665.665 0 0 1-.664-.664v-1.66a.69.69 0 0 1 .664-.7H9.7a.665.665 0 0 1 .664.664zM4.35 12.65h3.021v1.328H4.35zm5.18.664a.664.664 0 1 1-.664-.664.664.664 0 0 1 .663.664zm-6.01 0a.664.664 0 1 1-.664-.664.664.664 0 0 1 .664.664zm10.658-3.685a.664.664 0 1 1 .664-.664.664.664 0 0 1-.664.664zm-9.994-4.35a.664.664 0 1 1-.664.664.664.664 0 0 1 .664-.664zM1.338 7a1.959 1.959 0 0 1-.01-.2V5.279A2.03 2.03 0 0 1 1.9 3.862a2 2 0 0 1 .673-.462l.682-2.032A1.548 1.548 0 0 1 4.709.332h4.92a1.548 1.548 0 0 1 1.455 1.039l.152.554H9.822c-.036-.079-.112-.266-.193-.266h-4.92a.222.222 0 0 0-.2.152v.006l-.471 1.437h2.24a2.9 2.9 0 0 0-.294.605l-.008.022-.227.7H3.32a.69.69 0 0 0-.664.7v.958A2.876 2.876 0 0 0 1.338 7zM17 8.135v3.685a1.3 1.3 0 0 1-1.328 1.162 1.33 1.33 0 0 1-1.317-1.162h-1.406a3.3 3.3 0 0 0-.6-1.328h2.658a.665.665 0 0 0 .664-.664V8.135a.665.665 0 0 0-.664-.664h-4.29A2.872 2.872 0 0 0 8.3 6.142h6l-.486-1.412a.22.22 0 0 0-.2-.149h-4.92a.221.221 0 0 0-.2.151l-.485 1.443h-1.4L7.238 4.3a1.548 1.548 0 0 1 1.456-1.046h4.92A1.548 1.548 0 0 1 15.069 4.3l.684 1.991A2 2 0 0 1 17 8.135zm-5.487 1.494L11.084 8.3h1.6v1.329zm0 0" transform="translate(0 -.332)"/>
</svg>
