<svg xmlns="http://www.w3.org/2000/svg" id="Groupe_496" width="21.609" height="21.609" viewBox="0 0 21.609 21.609">
    <defs>
        <style>
            .cls-1{fill:#101010}
        </style>
    </defs>
    <path id="Tracé_230" d="M59.331 45.208h-1.8a.9.9 0 0 0-.9.9v7.2a.9.9 0 1 0 1.8 0v-2.472a.224.224 0 0 1 .223-.225h.677a2.7 2.7 0 0 0 0-5.4zm0 3.6h-.675a.224.224 0 0 1-.225-.223v-1.351a.224.224 0 0 1 .223-.225h.677a.9.9 0 0 1 0 1.8z" class="cls-1" transform="translate(-47.889 -38.23)"/>
    <path id="Tracé_231" d="M10.8 0a10.8 10.8 0 1 0 10.8 10.8A10.8 10.8 0 0 0 10.8 0zm0 19.809a9 9 0 1 1 9-9 9 9 0 0 1-9 9z" class="cls-1"/>
</svg>
